<svg width="385" height="109" viewBox="0 0 385 109" fill="none" xmlns="http://www.w3.org/2000/svg">
<rect y="2" width="385" height="104" rx="12" fill="#F9F6E9"/>
<path d="M81.72 92.51C80.7667 92.51 79.8133 92.3633 78.86 92.07C77.9067 91.85 76.99 91.4833 76.11 90.97C73.3233 89.21 70.6833 86.8267 68.19 83.82C65.77 80.8133 63.57 77.5867 61.59 74.14C59.6833 70.62 58.0333 67.2467 56.64 64.02C55.32 60.7933 54.33 58.08 53.67 55.88C52.4233 57.2733 50.9567 58.63 49.27 59.95C47.6567 61.1967 46.2633 62.4433 45.09 63.69C44.5033 66.8433 43.9167 69.96 43.33 73.04C42.8167 76.12 42.45 78.43 42.23 79.97C42.0833 81.3633 42.3767 82.4267 43.11 83.16C43.9167 83.82 44.65 84.2233 45.31 84.37C46.0433 84.4433 47.2533 84.5167 48.94 84.59C50.7 84.6633 52.4233 84.7367 54.11 84.81C55.7967 84.81 56.8967 84.81 57.41 84.81H57.52C57.8133 84.81 57.96 84.92 57.96 85.14C57.96 85.4333 57.7767 85.7633 57.41 86.13C57.0433 86.4967 56.6767 86.6433 56.31 86.57C53.9633 86.4233 51.25 86.3133 48.17 86.24C45.09 86.1667 42.0467 86.13 39.04 86.13C37.5 86.13 36.0333 86.13 34.64 86.13C33.32 86.13 32.0367 86.1667 30.79 86.24C29.69 86.24 28.0767 86.2767 25.95 86.35C23.8233 86.4233 21.4767 86.4967 18.91 86.57C16.3433 86.57 13.8867 86.57 11.54 86.57H11.43C11.21 86.57 11.1 86.46 11.1 86.24C11.1 85.9467 11.2833 85.6167 11.65 85.25C12.0167 84.81 12.3467 84.6267 12.64 84.7C14.4 84.7 15.9767 84.7367 17.37 84.81C18.7633 84.81 20.01 84.81 21.11 84.81C23.75 84.81 25.6933 84.5533 26.94 84.04C28.1867 83.4533 29.1767 82.28 29.91 80.52C30.6433 78.76 31.5233 76.0467 32.55 72.38C34.8967 64.3867 36.8033 56.7233 38.27 49.39C39.7367 41.9833 41.13 34.2833 42.45 26.29C42.67 24.8233 42.4133 23.5767 41.68 22.55C40.9467 21.45 40.0667 20.8267 39.04 20.68C38.3067 20.5333 37.06 20.4233 35.3 20.35C33.6133 20.2767 31.9267 20.24 30.24 20.24C28.6267 20.1667 27.5267 20.1667 26.94 20.24C26.5 20.24 26.28 20.0933 26.28 19.8C26.28 19.5067 26.4633 19.2133 26.83 18.92C27.1967 18.5533 27.6 18.37 28.04 18.37C30.9 18.37 34.2367 18.4433 38.05 18.59C41.8633 18.7367 45.4567 18.81 48.83 18.81C49.71 18.81 50.5167 18.81 51.25 18.81C52.0567 18.81 52.8267 18.7733 53.56 18.7C55.0267 18.6267 56.8967 18.59 59.17 18.59C61.4433 18.59 63.9367 18.5167 66.65 18.37C67.0167 18.37 67.2 18.5167 67.2 18.81C67.2 19.1033 67.0533 19.3967 66.76 19.69C66.54 19.9833 66.2833 20.13 65.99 20.13C65.4767 20.13 64.89 20.0933 64.23 20.02C63.6433 19.9467 62.7633 19.91 61.59 19.91C59.0967 19.91 57.2633 20.6433 56.09 22.11C54.99 23.5033 53.8167 26.0333 52.57 29.7C52.13 31.0933 51.5433 33.2567 50.81 36.19C50.0767 39.1233 49.3067 42.4967 48.5 46.31C47.7667 50.05 46.9967 53.9 46.19 57.86C50.0767 53.8267 54 49.6833 57.96 45.43C61.92 41.1767 65.8067 36.96 69.62 32.78C71.9667 30.36 73.5433 28.38 74.35 26.84C75.23 25.2267 75.67 23.9433 75.67 22.99C75.67 21.67 75.12 20.8633 74.02 20.57C72.92 20.2767 72.1133 20.13 71.6 20.13H71.16C70.72 20.13 70.5 19.9467 70.5 19.58C70.5 19.2867 70.6467 19.03 70.94 18.81C71.3067 18.5167 71.82 18.37 72.48 18.37C72.9933 18.37 74.02 18.4067 75.56 18.48C77.1 18.5533 78.75 18.6633 80.51 18.81C82.3433 18.8833 83.81 18.92 84.91 18.92C87.11 18.92 89.4933 18.8467 92.06 18.7C94.7 18.5533 97.78 18.48 101.3 18.48H101.41C101.63 18.48 101.74 18.59 101.74 18.81C101.74 19.1033 101.557 19.47 101.19 19.91C100.823 20.2767 100.493 20.4233 100.2 20.35C97.4133 20.2033 95.0667 20.3867 93.16 20.9C91.3267 21.4133 89.6033 22.2567 87.99 23.43C86.3767 24.53 84.47 25.9967 82.27 27.83C81.0233 28.8567 79.3733 30.36 77.32 32.34C75.2667 34.2467 73.03 36.3367 70.61 38.61C68.2633 40.8833 65.9533 43.12 63.68 45.32C61.48 47.52 59.61 49.4267 58.07 51.04C56.6033 52.6533 55.6867 53.7533 55.32 54.34C56.1267 55.5867 57.5933 57.3467 59.72 59.62C61.8467 61.8933 64.3033 64.3867 67.09 67.1C69.8767 69.74 72.6633 72.3433 75.45 74.91C78.31 77.4033 80.8767 79.6033 83.15 81.51C85.4233 83.4167 87.0733 84.6633 88.1 85.25C89.1267 85.91 90.2633 86.5333 91.51 87.12C92.83 87.6333 93.7467 87.9633 94.26 88.11C94.7 88.33 94.92 88.6233 94.92 88.99C94.92 89.5033 94.6267 89.76 94.04 89.76C93.7467 89.76 93.38 89.65 92.94 89.43C92.3533 89.1367 91.8033 88.99 91.29 88.99C90.7033 88.99 90.2267 89.1367 89.86 89.43C89.5667 89.7967 89.2367 90.09 88.87 90.31C86.8167 91.7767 84.4333 92.51 81.72 92.51ZM112.763 70.78C110.523 70.78 108.329 70.5233 106.183 70.01C106.136 70.4767 106.113 71.2 106.113 72.18C106.113 76.0533 106.836 78.97 108.283 80.93C109.729 82.89 111.456 83.87 113.463 83.87C115.469 83.87 117.383 83.2633 119.203 82.05C121.023 80.8367 122.609 79.1567 123.963 77.01C125.643 77.3833 126.483 78.2467 126.483 79.6C122.376 85.9 117.079 89.05 110.593 89.05C106.673 89.05 103.243 87.5567 100.303 84.57C97.3626 81.5367 95.8926 77.3367 95.8926 71.97C95.8926 67.9567 96.6626 64.1533 98.2026 60.56C99.7426 56.92 102.193 53.8633 105.553 51.39C108.913 48.87 112.623 47.61 116.683 47.61C120.789 47.61 123.799 48.5433 125.713 50.41C127.626 52.2767 128.583 54.7267 128.583 57.76C128.583 62.1467 127.043 65.4133 123.963 67.56C120.929 69.7067 117.196 70.78 112.763 70.78ZM115.703 51.95C113.323 51.95 111.316 53.42 109.683 56.36C108.049 59.3 106.976 62.87 106.463 67.07H107.513C111.573 67.07 114.559 66.02 116.473 63.92C118.433 61.82 119.413 59.3 119.413 56.36C119.413 55.1467 119.086 54.12 118.433 53.28C117.826 52.3933 116.916 51.95 115.703 51.95ZM141.643 21.01C144.956 21.8967 147.219 23.5067 148.433 25.84C149.693 28.1267 150.323 30.67 150.323 33.47C150.323 36.27 149.879 41.0533 148.993 47.82C148.106 54.54 147.499 59.9067 147.173 63.92C148.573 58.9267 150.556 54.96 153.123 52.02C155.736 49.08 158.536 47.61 161.523 47.61C164.509 47.61 167.076 49.0333 169.223 51.88C171.416 54.7267 172.513 58.3667 172.513 62.8C172.513 69.66 170.669 75.5867 166.983 80.58C163.343 85.5267 159.166 88 154.453 88C152.819 88 151.186 87.6267 149.552 86.88C151.559 86.32 153.379 85.1767 155.013 83.45C156.646 81.7233 157.976 79.74 159.003 77.5C161.103 72.8333 162.153 68.1667 162.153 63.5C162.153 61.2133 161.709 59.2067 160.823 57.48C159.983 55.7533 158.839 54.89 157.393 54.89C155.059 54.89 152.679 57.27 150.253 62.03C147.873 66.79 146.613 72.7167 146.473 79.81V81.14C146.566 82.7733 146.963 85.48 147.663 89.26C140.943 87.72 137.583 82.89 137.583 74.77C137.583 71.4567 138.353 64.7833 139.893 54.75C141.479 44.7167 142.273 37.39 142.273 32.77C142.273 28.15 142.063 24.23 141.643 21.01ZM206.856 47.47C209.283 47.47 211.126 47.9133 212.386 48.8C213.646 49.6867 214.276 51.32 214.276 53.7C214.276 54.4467 213.833 57.7367 212.946 63.57C212.06 69.3567 211.616 74.3267 211.616 78.48C211.616 82.6333 212.06 86.2967 212.946 89.47C209.446 88.35 207.02 86.7633 205.666 84.71C204.313 82.6567 203.636 80.1133 203.636 77.08C203.636 75.9133 203.893 73.2767 204.406 69.17C202.96 74.49 200.743 78.97 197.756 82.61C194.816 86.2033 192.04 88 189.426 88C184.06 88 181.376 84.1267 181.376 76.38C181.376 73.8133 181.75 70.2433 182.496 65.67C183.29 61.05 183.686 57.55 183.686 55.17C183.686 52.79 183.36 50.3867 182.706 47.96C186.58 47.96 189.38 48.4733 191.106 49.5C192.88 50.48 193.766 52.4633 193.766 55.45C193.766 57.0367 193.276 60.1867 192.296 64.9C191.316 69.6133 190.826 73.16 190.826 75.54C190.826 78.9933 191.76 80.72 193.626 80.72C194.56 80.72 195.633 80.09 196.846 78.83C198.06 77.5233 199.226 75.82 200.346 73.72C201.466 71.5733 202.4 68.9133 203.146 65.74C203.94 62.52 204.336 59.2767 204.336 56.01C204.336 52.6967 204.196 49.8967 203.916 47.61C205.316 47.5167 206.296 47.47 206.856 47.47ZM250.217 47.61C252.971 47.61 254.931 48.4733 256.097 50.2C257.311 51.88 257.917 54.19 257.917 57.13C257.917 60.0233 257.451 64.1067 256.517 69.38C255.631 74.6533 255.187 78.5033 255.187 80.93C255.187 83.31 255.491 85.06 256.097 86.18C256.704 87.2533 257.731 88.1867 259.177 88.98C258.571 89.0267 257.707 89.05 256.587 89.05C252.667 89.05 249.867 88.4433 248.187 87.23C246.554 86.0167 245.737 83.8933 245.737 80.86C245.737 79.1333 246.204 75.7733 247.137 70.78C248.071 65.74 248.537 61.9833 248.537 59.51C248.537 56.43 247.604 54.89 245.737 54.89C244.664 54.89 243.451 55.52 242.097 56.78C240.744 58.04 239.437 59.7667 238.177 61.96C236.917 64.1067 235.867 66.8833 235.027 70.29C234.187 73.6967 233.767 77.1033 233.767 80.51C233.767 83.87 233.907 86.3667 234.187 88C232.694 88.0933 231.714 88.14 231.247 88.14C228.587 88.14 226.674 87.6733 225.507 86.74C224.341 85.8067 223.757 84.2667 223.757 82.12C223.757 81.1867 224.247 77.5933 225.227 71.34C226.207 65.0867 226.697 60.1167 226.697 56.43C226.697 52.6967 226.301 49.2667 225.507 46.14C228.914 47.2133 231.294 48.7533 232.647 50.76C234.001 52.72 234.677 54.9833 234.677 57.55C234.677 60.07 234.397 63.01 233.837 66.37C235.377 61.1433 237.804 56.71 241.117 53.07C244.431 49.43 247.464 47.61 250.217 47.61ZM297.816 80.58C297.816 82.9133 297.956 85.3867 298.236 88C296.742 88.0933 295.762 88.14 295.296 88.14C292.682 88.14 290.792 87.6967 289.626 86.81C288.459 85.8767 287.876 84.5233 287.876 82.75C287.876 80.9767 288.366 77.3367 289.346 71.83C290.372 66.2767 290.886 62.0767 290.886 59.23C290.886 56.3367 289.952 54.89 288.086 54.89C287.059 54.89 285.939 55.52 284.726 56.78C283.512 57.9933 282.369 59.6733 281.296 61.82C280.222 63.92 279.312 66.6267 278.566 69.94C277.866 73.2533 277.516 76.45 277.516 79.53C277.516 82.5633 277.656 85.3867 277.936 88C276.442 88.0933 275.462 88.14 274.996 88.14C272.382 88.14 270.492 87.6967 269.326 86.81C268.159 85.8767 267.576 84.3367 267.576 82.19C267.576 81.6767 268.042 78.2 268.976 71.76C269.956 65.32 270.446 60.2333 270.446 56.5C270.446 52.72 270.049 49.2667 269.256 46.14C272.709 47.2133 275.112 48.7533 276.466 50.76C277.819 52.7667 278.496 55.24 278.496 58.18C278.496 59.6733 278.332 61.5633 278.006 63.85C279.592 59.1833 281.786 55.31 284.586 52.23C287.432 49.15 290.162 47.61 292.776 47.61C295.436 47.61 297.349 48.59 298.516 50.55C299.729 52.51 300.336 55.3333 300.336 59.02C302.109 55.6133 304.139 52.86 306.426 50.76C308.712 48.66 310.812 47.61 312.726 47.61C315.572 47.61 317.579 48.4733 318.746 50.2C319.959 51.88 320.566 54.19 320.566 57.13C320.566 60.0233 320.099 64.1067 319.166 69.38C318.279 74.6533 317.836 78.5033 317.836 80.93C317.836 83.31 318.139 85.06 318.746 86.18C319.352 87.2533 320.379 88.1867 321.826 88.98C321.219 89.0267 320.356 89.05 319.236 89.05C315.316 89.05 312.516 88.4433 310.836 87.23C309.202 86.0167 308.386 83.8933 308.386 80.86C308.386 79.1333 308.852 75.7733 309.786 70.78C310.719 65.74 311.186 61.9833 311.186 59.51C311.186 56.43 310.252 54.89 308.386 54.89C306.986 54.89 305.469 55.9167 303.836 57.97C302.249 59.9767 300.849 63.0333 299.636 67.14C298.422 71.2 297.816 75.68 297.816 80.58ZM355.743 47.47C358.17 47.47 360.013 47.9133 361.273 48.8C362.533 49.6867 363.163 51.32 363.163 53.7C363.163 54.4467 362.72 57.7367 361.833 63.57C360.946 69.3567 360.503 74.3267 360.503 78.48C360.503 82.6333 360.946 86.2967 361.833 89.47C358.333 88.35 355.906 86.7633 354.553 84.71C353.2 82.6567 352.523 80.1133 352.523 77.08C352.523 75.9133 352.78 73.2767 353.293 69.17C351.846 74.49 349.63 78.97 346.643 82.61C343.703 86.2033 340.926 88 338.313 88C332.946 88 330.263 84.1267 330.263 76.38C330.263 73.8133 330.636 70.2433 331.383 65.67C332.176 61.05 332.573 57.55 332.573 55.17C332.573 52.79 332.246 50.3867 331.593 47.96C335.466 47.96 338.266 48.4733 339.993 49.5C341.766 50.48 342.653 52.4633 342.653 55.45C342.653 57.0367 342.163 60.1867 341.183 64.9C340.203 69.6133 339.713 73.16 339.713 75.54C339.713 78.9933 340.646 80.72 342.513 80.72C343.446 80.72 344.52 80.09 345.733 78.83C346.946 77.5233 348.113 75.82 349.233 73.72C350.353 71.5733 351.286 68.9133 352.033 65.74C352.826 62.52 353.223 59.2767 353.223 56.01C353.223 52.6967 353.083 49.8967 352.803 47.61C354.203 47.5167 355.183 47.47 355.743 47.47Z" fill="#306B21"/>
</svg>
