<svg width="128" height="128" viewBox="0 0 128 128" fill="none" xmlns="http://www.w3.org/2000/svg">
<rect width="128" height="128" fill="#306B21"/>
<rect width="128" height="128" fill="#306B21"/>
<path d="M89.456 111.248C88.3467 111.248 87.2373 111.077 86.128 110.736C85.0187 110.48 83.952 110.053 82.928 109.456C79.6853 107.408 76.6133 104.635 73.712 101.136C70.896 97.6373 68.336 93.8827 66.032 89.872C63.8133 85.776 61.8933 81.8507 60.272 78.096C58.736 74.3413 57.584 71.184 56.816 68.624C55.3653 70.2453 53.6587 71.824 51.696 73.36C49.8187 74.8107 48.1973 76.2613 46.832 77.712C46.1493 81.3813 45.4667 85.008 44.784 88.592C44.1867 92.176 43.76 94.864 43.504 96.656C43.3333 98.2773 43.6747 99.5147 44.528 100.368C45.4667 101.136 46.32 101.605 47.088 101.776C47.9413 101.861 49.3493 101.947 51.312 102.032C53.36 102.117 55.3653 102.203 57.328 102.288C59.2907 102.288 60.5707 102.288 61.168 102.288H61.296C61.6373 102.288 61.808 102.416 61.808 102.672C61.808 103.013 61.5947 103.397 61.168 103.824C60.7413 104.251 60.3147 104.421 59.888 104.336C57.1573 104.165 54 104.037 50.416 103.952C46.832 103.867 43.2907 103.824 39.792 103.824C38 103.824 36.2933 103.824 34.672 103.824C33.136 103.824 31.6427 103.867 30.192 103.952C28.912 103.952 27.0347 103.995 24.56 104.08C22.0853 104.165 19.3547 104.251 16.368 104.336C13.3813 104.336 10.5227 104.336 7.792 104.336H7.664C7.408 104.336 7.28 104.208 7.28 103.952C7.28 103.611 7.49333 103.227 7.92 102.8C8.34667 102.288 8.73067 102.075 9.072 102.16C11.12 102.16 12.9547 102.203 14.576 102.288C16.1973 102.288 17.648 102.288 18.928 102.288C22 102.288 24.2613 101.989 25.712 101.392C27.1627 100.709 28.3147 99.344 29.168 97.296C30.0213 95.248 31.0453 92.0907 32.24 87.824C34.9707 78.5227 37.1893 69.6053 38.896 61.072C40.6027 52.4533 42.224 43.4933 43.76 34.192C44.016 32.4853 43.7173 31.0347 42.864 29.84C42.0107 28.56 40.9867 27.8347 39.792 27.664C38.9387 27.4933 37.488 27.3653 35.44 27.28C33.4773 27.1947 31.5147 27.152 29.552 27.152C27.6747 27.0667 26.3947 27.0667 25.712 27.152C25.2 27.152 24.944 26.9813 24.944 26.64C24.944 26.2987 25.1573 25.9573 25.584 25.616C26.0107 25.1893 26.48 24.976 26.992 24.976C30.32 24.976 34.2027 25.0613 38.64 25.232C43.0773 25.4027 47.2587 25.488 51.184 25.488C52.208 25.488 53.1467 25.488 54 25.488C54.9387 25.488 55.8347 25.4453 56.688 25.36C58.3947 25.2747 60.5707 25.232 63.216 25.232C65.8613 25.232 68.7627 25.1467 71.92 24.976C72.3467 24.976 72.56 25.1467 72.56 25.488C72.56 25.8293 72.3893 26.1707 72.048 26.512C71.792 26.8533 71.4933 27.024 71.152 27.024C70.5547 27.024 69.872 26.9813 69.104 26.896C68.4213 26.8107 67.3973 26.768 66.032 26.768C63.1307 26.768 60.9973 27.6213 59.632 29.328C58.352 30.9493 56.9867 33.8933 55.536 38.16C55.024 39.7813 54.3413 42.2987 53.488 45.712C52.6347 49.1253 51.7387 53.0507 50.8 57.488C49.9467 61.84 49.0507 66.32 48.112 70.928C52.6347 66.2347 57.2 61.4133 61.808 56.464C66.416 51.5147 70.9387 46.608 75.376 41.744C78.1067 38.928 79.9413 36.624 80.88 34.832C81.904 32.9547 82.416 31.4613 82.416 30.352C82.416 28.816 81.776 27.8773 80.496 27.536C79.216 27.1947 78.2773 27.024 77.68 27.024H77.168C76.656 27.024 76.4 26.8107 76.4 26.384C76.4 26.0427 76.5707 25.744 76.912 25.488C77.3387 25.1467 77.936 24.976 78.704 24.976C79.3013 24.976 80.496 25.0187 82.288 25.104C84.08 25.1893 86 25.3173 88.048 25.488C90.1813 25.5733 91.888 25.616 93.168 25.616C95.728 25.616 98.5013 25.5307 101.488 25.36C104.56 25.1893 108.144 25.104 112.24 25.104H112.368C112.624 25.104 112.752 25.232 112.752 25.488C112.752 25.8293 112.539 26.256 112.112 26.768C111.685 27.1947 111.301 27.3653 110.96 27.28C107.717 27.1093 104.987 27.3227 102.768 27.92C100.635 28.5173 98.6293 29.4987 96.752 30.864C94.8747 32.144 92.656 33.8507 90.096 35.984C88.6453 37.1787 86.7253 38.928 84.336 41.232C81.9467 43.4507 79.344 45.8827 76.528 48.528C73.7973 51.1733 71.1093 53.776 68.464 56.336C65.904 58.896 63.728 61.1147 61.936 62.992C60.2293 64.8693 59.1627 66.1493 58.736 66.832C59.6747 68.2827 61.3813 70.3307 63.856 72.976C66.3307 75.6213 69.1893 78.5227 72.432 81.68C75.6747 84.752 78.9173 87.7813 82.16 90.768C85.488 93.6693 88.4747 96.2293 91.12 98.448C93.7653 100.667 95.6853 102.117 96.88 102.8C98.0747 103.568 99.3973 104.293 100.848 104.976C102.384 105.573 103.451 105.957 104.048 106.128C104.56 106.384 104.816 106.725 104.816 107.152C104.816 107.749 104.475 108.048 103.792 108.048C103.451 108.048 103.024 107.92 102.512 107.664C101.829 107.323 101.189 107.152 100.592 107.152C99.9093 107.152 99.3547 107.323 98.928 107.664C98.5867 108.091 98.2027 108.432 97.776 108.688C95.3867 110.395 92.6133 111.248 89.456 111.248Z" fill="#F9F6E9"/>
</svg>
