<svg width="364" height="109" viewBox="0 0 364 109" fill="none" xmlns="http://www.w3.org/2000/svg">
<path d="M71.72 92.51C70.7667 92.51 69.8133 92.3633 68.86 92.07C67.9067 91.85 66.99 91.4833 66.11 90.97C63.3233 89.21 60.6833 86.8267 58.19 83.82C55.77 80.8133 53.57 77.5867 51.59 74.14C49.6833 70.62 48.0333 67.2467 46.64 64.02C45.32 60.7933 44.33 58.08 43.67 55.88C42.4233 57.2733 40.9567 58.63 39.27 59.95C37.6567 61.1967 36.2633 62.4433 35.09 63.69C34.5033 66.8433 33.9167 69.96 33.33 73.04C32.8167 76.12 32.45 78.43 32.23 79.97C32.0833 81.3633 32.3767 82.4267 33.11 83.16C33.9167 83.82 34.65 84.2233 35.31 84.37C36.0433 84.4433 37.2533 84.5167 38.94 84.59C40.7 84.6633 42.4233 84.7367 44.11 84.81C45.7967 84.81 46.8967 84.81 47.41 84.81H47.52C47.8133 84.81 47.96 84.92 47.96 85.14C47.96 85.4333 47.7767 85.7633 47.41 86.13C47.0433 86.4967 46.6767 86.6433 46.31 86.57C43.9633 86.4233 41.25 86.3133 38.17 86.24C35.09 86.1667 32.0467 86.13 29.04 86.13C27.5 86.13 26.0333 86.13 24.64 86.13C23.32 86.13 22.0367 86.1667 20.79 86.24C19.69 86.24 18.0767 86.2767 15.95 86.35C13.8233 86.4233 11.4767 86.4967 8.91 86.57C6.34333 86.57 3.88667 86.57 1.54 86.57H1.43C1.21 86.57 1.1 86.46 1.1 86.24C1.1 85.9467 1.28333 85.6167 1.65 85.25C2.01667 84.81 2.34667 84.6267 2.64 84.7C4.4 84.7 5.97667 84.7367 7.37 84.81C8.76333 84.81 10.01 84.81 11.11 84.81C13.75 84.81 15.6933 84.5533 16.94 84.04C18.1867 83.4533 19.1767 82.28 19.91 80.52C20.6433 78.76 21.5233 76.0467 22.55 72.38C24.8967 64.3867 26.8033 56.7233 28.27 49.39C29.7367 41.9833 31.13 34.2833 32.45 26.29C32.67 24.8233 32.4133 23.5767 31.68 22.55C30.9467 21.45 30.0667 20.8267 29.04 20.68C28.3067 20.5333 27.06 20.4233 25.3 20.35C23.6133 20.2767 21.9267 20.24 20.24 20.24C18.6267 20.1667 17.5267 20.1667 16.94 20.24C16.5 20.24 16.28 20.0933 16.28 19.8C16.28 19.5067 16.4633 19.2133 16.83 18.92C17.1967 18.5533 17.6 18.37 18.04 18.37C20.9 18.37 24.2367 18.4433 28.05 18.59C31.8633 18.7367 35.4567 18.81 38.83 18.81C39.71 18.81 40.5167 18.81 41.25 18.81C42.0567 18.81 42.8267 18.7733 43.56 18.7C45.0267 18.6267 46.8967 18.59 49.17 18.59C51.4433 18.59 53.9367 18.5167 56.65 18.37C57.0167 18.37 57.2 18.5167 57.2 18.81C57.2 19.1033 57.0533 19.3967 56.76 19.69C56.54 19.9833 56.2833 20.13 55.99 20.13C55.4767 20.13 54.89 20.0933 54.23 20.02C53.6433 19.9467 52.7633 19.91 51.59 19.91C49.0967 19.91 47.2633 20.6433 46.09 22.11C44.99 23.5033 43.8167 26.0333 42.57 29.7C42.13 31.0933 41.5433 33.2567 40.81 36.19C40.0767 39.1233 39.3067 42.4967 38.5 46.31C37.7667 50.05 36.9967 53.9 36.19 57.86C40.0767 53.8267 44 49.6833 47.96 45.43C51.92 41.1767 55.8067 36.96 59.62 32.78C61.9667 30.36 63.5433 28.38 64.35 26.84C65.23 25.2267 65.67 23.9433 65.67 22.99C65.67 21.67 65.12 20.8633 64.02 20.57C62.92 20.2767 62.1133 20.13 61.6 20.13H61.16C60.72 20.13 60.5 19.9467 60.5 19.58C60.5 19.2867 60.6467 19.03 60.94 18.81C61.3067 18.5167 61.82 18.37 62.48 18.37C62.9933 18.37 64.02 18.4067 65.56 18.48C67.1 18.5533 68.75 18.6633 70.51 18.81C72.3433 18.8833 73.81 18.92 74.91 18.92C77.11 18.92 79.4933 18.8467 82.06 18.7C84.7 18.5533 87.78 18.48 91.3 18.48H91.41C91.63 18.48 91.74 18.59 91.74 18.81C91.74 19.1033 91.5567 19.47 91.19 19.91C90.8233 20.2767 90.4933 20.4233 90.2 20.35C87.4133 20.2033 85.0667 20.3867 83.16 20.9C81.3267 21.4133 79.6033 22.2567 77.99 23.43C76.3767 24.53 74.47 25.9967 72.27 27.83C71.0233 28.8567 69.3733 30.36 67.32 32.34C65.2667 34.2467 63.03 36.3367 60.61 38.61C58.2633 40.8833 55.9533 43.12 53.68 45.32C51.48 47.52 49.61 49.4267 48.07 51.04C46.6033 52.6533 45.6867 53.7533 45.32 54.34C46.1267 55.5867 47.5933 57.3467 49.72 59.62C51.8467 61.8933 54.3033 64.3867 57.09 67.1C59.8767 69.74 62.6633 72.3433 65.45 74.91C68.31 77.4033 70.8767 79.6033 73.15 81.51C75.4233 83.4167 77.0733 84.6633 78.1 85.25C79.1267 85.91 80.2633 86.5333 81.51 87.12C82.83 87.6333 83.7467 87.9633 84.26 88.11C84.7 88.33 84.92 88.6233 84.92 88.99C84.92 89.5033 84.6267 89.76 84.04 89.76C83.7467 89.76 83.38 89.65 82.94 89.43C82.3533 89.1367 81.8033 88.99 81.29 88.99C80.7033 88.99 80.2267 89.1367 79.86 89.43C79.5667 89.7967 79.2367 90.09 78.87 90.31C76.8167 91.7767 74.4333 92.51 71.72 92.51ZM102.763 70.78C100.523 70.78 98.3292 70.5233 96.1826 70.01C96.1359 70.4767 96.1126 71.2 96.1126 72.18C96.1126 76.0533 96.8359 78.97 98.2826 80.93C99.7292 82.89 101.456 83.87 103.463 83.87C105.469 83.87 107.383 83.2633 109.203 82.05C111.023 80.8367 112.609 79.1567 113.963 77.01C115.643 77.3833 116.483 78.2467 116.483 79.6C112.376 85.9 107.079 89.05 100.593 89.05C96.6726 89.05 93.2426 87.5567 90.3026 84.57C87.3626 81.5367 85.8926 77.3367 85.8926 71.97C85.8926 67.9567 86.6626 64.1533 88.2026 60.56C89.7426 56.92 92.1926 53.8633 95.5526 51.39C98.9126 48.87 102.623 47.61 106.683 47.61C110.789 47.61 113.799 48.5433 115.713 50.41C117.626 52.2767 118.583 54.7267 118.583 57.76C118.583 62.1467 117.043 65.4133 113.963 67.56C110.929 69.7067 107.196 70.78 102.763 70.78ZM105.703 51.95C103.323 51.95 101.316 53.42 99.6826 56.36C98.0492 59.3 96.9759 62.87 96.4626 67.07H97.5126C101.573 67.07 104.559 66.02 106.473 63.92C108.433 61.82 109.413 59.3 109.413 56.36C109.413 55.1467 109.086 54.12 108.433 53.28C107.826 52.3933 106.916 51.95 105.703 51.95ZM131.643 21.01C134.956 21.8967 137.219 23.5067 138.433 25.84C139.693 28.1267 140.323 30.67 140.323 33.47C140.323 36.27 139.879 41.0533 138.993 47.82C138.106 54.54 137.499 59.9067 137.173 63.92C138.573 58.9267 140.556 54.96 143.123 52.02C145.736 49.08 148.536 47.61 151.523 47.61C154.509 47.61 157.076 49.0333 159.223 51.88C161.416 54.7267 162.513 58.3667 162.513 62.8C162.513 69.66 160.669 75.5867 156.983 80.58C153.343 85.5267 149.166 88 144.453 88C142.819 88 141.186 87.6267 139.552 86.88C141.559 86.32 143.379 85.1767 145.013 83.45C146.646 81.7233 147.976 79.74 149.003 77.5C151.103 72.8333 152.153 68.1667 152.153 63.5C152.153 61.2133 151.709 59.2067 150.823 57.48C149.983 55.7533 148.839 54.89 147.393 54.89C145.059 54.89 142.679 57.27 140.253 62.03C137.873 66.79 136.613 72.7167 136.473 79.81V81.14C136.566 82.7733 136.963 85.48 137.663 89.26C130.943 87.72 127.583 82.89 127.583 74.77C127.583 71.4567 128.353 64.7833 129.893 54.75C131.479 44.7167 132.273 37.39 132.273 32.77C132.273 28.15 132.063 24.23 131.643 21.01ZM196.856 47.47C199.283 47.47 201.126 47.9133 202.386 48.8C203.646 49.6867 204.276 51.32 204.276 53.7C204.276 54.4467 203.833 57.7367 202.946 63.57C202.06 69.3567 201.616 74.3267 201.616 78.48C201.616 82.6333 202.06 86.2967 202.946 89.47C199.446 88.35 197.02 86.7633 195.666 84.71C194.313 82.6567 193.636 80.1133 193.636 77.08C193.636 75.9133 193.893 73.2767 194.406 69.17C192.96 74.49 190.743 78.97 187.756 82.61C184.816 86.2033 182.04 88 179.426 88C174.06 88 171.376 84.1267 171.376 76.38C171.376 73.8133 171.75 70.2433 172.496 65.67C173.29 61.05 173.686 57.55 173.686 55.17C173.686 52.79 173.36 50.3867 172.706 47.96C176.58 47.96 179.38 48.4733 181.106 49.5C182.88 50.48 183.766 52.4633 183.766 55.45C183.766 57.0367 183.276 60.1867 182.296 64.9C181.316 69.6133 180.826 73.16 180.826 75.54C180.826 78.9933 181.76 80.72 183.626 80.72C184.56 80.72 185.633 80.09 186.846 78.83C188.06 77.5233 189.226 75.82 190.346 73.72C191.466 71.5733 192.4 68.9133 193.146 65.74C193.94 62.52 194.336 59.2767 194.336 56.01C194.336 52.6967 194.196 49.8967 193.916 47.61C195.316 47.5167 196.296 47.47 196.856 47.47ZM240.217 47.61C242.971 47.61 244.931 48.4733 246.097 50.2C247.311 51.88 247.917 54.19 247.917 57.13C247.917 60.0233 247.451 64.1067 246.517 69.38C245.631 74.6533 245.187 78.5033 245.187 80.93C245.187 83.31 245.491 85.06 246.097 86.18C246.704 87.2533 247.731 88.1867 249.177 88.98C248.571 89.0267 247.707 89.05 246.587 89.05C242.667 89.05 239.867 88.4433 238.187 87.23C236.554 86.0167 235.737 83.8933 235.737 80.86C235.737 79.1333 236.204 75.7733 237.137 70.78C238.071 65.74 238.537 61.9833 238.537 59.51C238.537 56.43 237.604 54.89 235.737 54.89C234.664 54.89 233.451 55.52 232.097 56.78C230.744 58.04 229.437 59.7667 228.177 61.96C226.917 64.1067 225.867 66.8833 225.027 70.29C224.187 73.6967 223.767 77.1033 223.767 80.51C223.767 83.87 223.907 86.3667 224.187 88C222.694 88.0933 221.714 88.14 221.247 88.14C218.587 88.14 216.674 87.6733 215.507 86.74C214.341 85.8067 213.757 84.2667 213.757 82.12C213.757 81.1867 214.247 77.5933 215.227 71.34C216.207 65.0867 216.697 60.1167 216.697 56.43C216.697 52.6967 216.301 49.2667 215.507 46.14C218.914 47.2133 221.294 48.7533 222.647 50.76C224.001 52.72 224.677 54.9833 224.677 57.55C224.677 60.07 224.397 63.01 223.837 66.37C225.377 61.1433 227.804 56.71 231.117 53.07C234.431 49.43 237.464 47.61 240.217 47.61Z" fill="#F9F6E9"/>
<path d="M287.816 80.58C287.816 82.9133 287.956 85.3867 288.236 88C286.742 88.0933 285.762 88.14 285.296 88.14C282.682 88.14 280.792 87.6967 279.626 86.81C278.459 85.8767 277.876 84.5233 277.876 82.75C277.876 80.9767 278.366 77.3367 279.346 71.83C280.372 66.2767 280.886 62.0767 280.886 59.23C280.886 56.3367 279.952 54.89 278.086 54.89C277.059 54.89 275.939 55.52 274.726 56.78C273.512 57.9933 272.369 59.6733 271.296 61.82C270.222 63.92 269.312 66.6267 268.566 69.94C267.866 73.2533 267.516 76.45 267.516 79.53C267.516 82.5633 267.656 85.3867 267.936 88C266.442 88.0933 265.462 88.14 264.996 88.14C262.382 88.14 260.492 87.6967 259.326 86.81C258.159 85.8767 257.576 84.3367 257.576 82.19C257.576 81.6767 258.042 78.2 258.976 71.76C259.956 65.32 260.446 60.2333 260.446 56.5C260.446 52.72 260.049 49.2667 259.256 46.14C262.709 47.2133 265.112 48.7533 266.466 50.76C267.819 52.7667 268.496 55.24 268.496 58.18C268.496 59.6733 268.332 61.5633 268.006 63.85C269.592 59.1833 271.786 55.31 274.586 52.23C277.432 49.15 280.162 47.61 282.776 47.61C285.436 47.61 287.349 48.59 288.516 50.55C289.729 52.51 290.336 55.3333 290.336 59.02C292.109 55.6133 294.139 52.86 296.426 50.76C298.712 48.66 300.812 47.61 302.726 47.61C305.572 47.61 307.579 48.4733 308.746 50.2C309.959 51.88 310.566 54.19 310.566 57.13C310.566 60.0233 310.099 64.1067 309.166 69.38C308.279 74.6533 307.836 78.5033 307.836 80.93C307.836 83.31 308.139 85.06 308.746 86.18C309.352 87.2533 310.379 88.1867 311.826 88.98C311.219 89.0267 310.356 89.05 309.236 89.05C305.316 89.05 302.516 88.4433 300.836 87.23C299.202 86.0167 298.386 83.8933 298.386 80.86C298.386 79.1333 298.852 75.7733 299.786 70.78C300.719 65.74 301.186 61.9833 301.186 59.51C301.186 56.43 300.252 54.89 298.386 54.89C296.986 54.89 295.469 55.9167 293.836 57.97C292.249 59.9767 290.849 63.0333 289.636 67.14C288.422 71.2 287.816 75.68 287.816 80.58ZM345.743 47.47C348.17 47.47 350.013 47.9133 351.273 48.8C352.533 49.6867 353.163 51.32 353.163 53.7C353.163 54.4467 352.72 57.7367 351.833 63.57C350.946 69.3567 350.503 74.3267 350.503 78.48C350.503 82.6333 350.946 86.2967 351.833 89.47C348.333 88.35 345.906 86.7633 344.553 84.71C343.2 82.6567 342.523 80.1133 342.523 77.08C342.523 75.9133 342.78 73.2767 343.293 69.17C341.846 74.49 339.63 78.97 336.643 82.61C333.703 86.2033 330.926 88 328.313 88C322.946 88 320.263 84.1267 320.263 76.38C320.263 73.8133 320.636 70.2433 321.383 65.67C322.176 61.05 322.573 57.55 322.573 55.17C322.573 52.79 322.246 50.3867 321.593 47.96C325.466 47.96 328.266 48.4733 329.993 49.5C331.766 50.48 332.653 52.4633 332.653 55.45C332.653 57.0367 332.163 60.1867 331.183 64.9C330.203 69.6133 329.713 73.16 329.713 75.54C329.713 78.9933 330.646 80.72 332.513 80.72C333.446 80.72 334.52 80.09 335.733 78.83C336.946 77.5233 338.113 75.82 339.233 73.72C340.353 71.5733 341.286 68.9133 342.033 65.74C342.826 62.52 343.223 59.2767 343.223 56.01C343.223 52.6967 343.083 49.8967 342.803 47.61C344.203 47.5167 345.183 47.47 345.743 47.47Z" fill="#306B21"/>
</svg>
