<svg width="32" height="32" viewBox="0 0 32 32" fill="none" xmlns="http://www.w3.org/2000/svg">
<rect width="32" height="32" fill="#D4DD7D"/>
<path d="M21.256 26.148C21.0133 26.148 20.7707 26.1107 20.528 26.036C20.2853 25.98 20.052 25.8867 19.828 25.756C19.1187 25.308 18.4467 24.7013 17.812 23.936C17.196 23.1707 16.636 22.3493 16.132 21.472C15.6467 20.576 15.2267 19.7173 14.872 18.896C14.536 18.0747 14.284 17.384 14.116 16.824C13.7987 17.1787 13.4253 17.524 12.996 17.86C12.5853 18.1773 12.2307 18.4947 11.932 18.812C11.7827 19.6147 11.6333 20.408 11.484 21.192C11.3533 21.976 11.26 22.564 11.204 22.956C11.1667 23.3107 11.2413 23.5813 11.428 23.768C11.6333 23.936 11.82 24.0387 11.988 24.076C12.1747 24.0947 12.4827 24.1133 12.912 24.132C13.36 24.1507 13.7987 24.1693 14.228 24.188C14.6573 24.188 14.9373 24.188 15.068 24.188H15.096C15.1707 24.188 15.208 24.216 15.208 24.272C15.208 24.3467 15.1613 24.4307 15.068 24.524C14.9747 24.6173 14.8813 24.6547 14.788 24.636C14.1907 24.5987 13.5 24.5707 12.716 24.552C11.932 24.5333 11.1573 24.524 10.392 24.524C10 24.524 9.62667 24.524 9.272 24.524C8.936 24.524 8.60933 24.5333 8.292 24.552C8.012 24.552 7.60133 24.5613 7.06 24.58C6.51867 24.5987 5.92133 24.6173 5.268 24.636C4.61467 24.636 3.98933 24.636 3.392 24.636H3.364C3.308 24.636 3.28 24.608 3.28 24.552C3.28 24.4773 3.32667 24.3933 3.42 24.3C3.51333 24.188 3.59733 24.1413 3.672 24.16C4.12 24.16 4.52133 24.1693 4.876 24.188C5.23067 24.188 5.548 24.188 5.828 24.188C6.5 24.188 6.99467 24.1227 7.312 23.992C7.62933 23.8427 7.88133 23.544 8.068 23.096C8.25467 22.648 8.47867 21.9573 8.74 21.024C9.33733 18.9893 9.82267 17.0387 10.196 15.172C10.5693 13.2867 10.924 11.3267 11.26 9.292C11.316 8.91867 11.2507 8.60133 11.064 8.34C10.8773 8.06 10.6533 7.90133 10.392 7.864C10.2053 7.82667 9.888 7.79867 9.44 7.78C9.01067 7.76133 8.58133 7.752 8.152 7.752C7.74133 7.73333 7.46133 7.73333 7.312 7.752C7.2 7.752 7.144 7.71467 7.144 7.64C7.144 7.56533 7.19067 7.49067 7.284 7.416C7.37733 7.32267 7.48 7.276 7.592 7.276C8.32 7.276 9.16933 7.29467 10.14 7.332C11.1107 7.36933 12.0253 7.388 12.884 7.388C13.108 7.388 13.3133 7.388 13.5 7.388C13.7053 7.388 13.9013 7.37867 14.088 7.36C14.4613 7.34133 14.9373 7.332 15.516 7.332C16.0947 7.332 16.7293 7.31333 17.42 7.276C17.5133 7.276 17.56 7.31333 17.56 7.388C17.56 7.46267 17.5227 7.53733 17.448 7.612C17.392 7.68667 17.3267 7.724 17.252 7.724C17.1213 7.724 16.972 7.71467 16.804 7.696C16.6547 7.67733 16.4307 7.668 16.132 7.668C15.4973 7.668 15.0307 7.85467 14.732 8.228C14.452 8.58267 14.1533 9.22667 13.836 10.16C13.724 10.5147 13.5747 11.0653 13.388 11.812C13.2013 12.5587 13.0053 13.4173 12.8 14.388C12.6133 15.34 12.4173 16.32 12.212 17.328C13.2013 16.3013 14.2 15.2467 15.208 14.164C16.216 13.0813 17.2053 12.008 18.176 10.944C18.7733 10.328 19.1747 9.824 19.38 9.432C19.604 9.02133 19.716 8.69467 19.716 8.452C19.716 8.116 19.576 7.91067 19.296 7.836C19.016 7.76133 18.8107 7.724 18.68 7.724H18.568C18.456 7.724 18.4 7.67733 18.4 7.584C18.4 7.50933 18.4373 7.444 18.512 7.388C18.6053 7.31333 18.736 7.276 18.904 7.276C19.0347 7.276 19.296 7.28533 19.688 7.304C20.08 7.32267 20.5 7.35067 20.948 7.388C21.4147 7.40667 21.788 7.416 22.068 7.416C22.628 7.416 23.2347 7.39733 23.888 7.36C24.56 7.32267 25.344 7.304 26.24 7.304H26.268C26.324 7.304 26.352 7.332 26.352 7.388C26.352 7.46267 26.3053 7.556 26.212 7.668C26.1187 7.76133 26.0347 7.79867 25.96 7.78C25.2507 7.74267 24.6533 7.78933 24.168 7.92C23.7013 8.05067 23.2627 8.26533 22.852 8.564C22.4413 8.844 21.956 9.21733 21.396 9.684C21.0787 9.94533 20.6587 10.328 20.136 10.832C19.6133 11.3173 19.044 11.8493 18.428 12.428C17.8307 13.0067 17.2427 13.576 16.664 14.136C16.104 14.696 15.628 15.1813 15.236 15.592C14.8627 16.0027 14.6293 16.2827 14.536 16.432C14.7413 16.7493 15.1147 17.1973 15.656 17.776C16.1973 18.3547 16.8227 18.9893 17.532 19.68C18.2413 20.352 18.9507 21.0147 19.66 21.668C20.388 22.3027 21.0413 22.8627 21.62 23.348C22.1987 23.8333 22.6187 24.1507 22.88 24.3C23.1413 24.468 23.4307 24.6267 23.748 24.776C24.084 24.9067 24.3173 24.9907 24.448 25.028C24.56 25.084 24.616 25.1587 24.616 25.252C24.616 25.3827 24.5413 25.448 24.392 25.448C24.3173 25.448 24.224 25.42 24.112 25.364C23.9627 25.2893 23.8227 25.252 23.692 25.252C23.5427 25.252 23.4213 25.2893 23.328 25.364C23.2533 25.4573 23.1693 25.532 23.076 25.588C22.5533 25.9613 21.9467 26.148 21.256 26.148Z" fill="#F9F6E9"/>
</svg>
